<svg width="320" height="96" viewBox="0 0 320 96" fill="none" xmlns="http://www.w3.org/2000/svg">
  <rect width="320" height="96" rx="24" fill="#0F172A"/>
  <rect x="18" y="18" width="60" height="60" rx="18" fill="#14B8A6"/>
  <path d="M33 58C33 47.5066 41.5066 39 52 39H57.5C67.165 39 75 46.835 75 56.5C75 66.165 67.165 74 57.5 74H52C41.5066 74 33 65.4934 33 55V58Z" fill="#CCFBF1"/>
  <path d="M48 34H71V40C71 50.4934 62.4934 59 52 59H48V34Z" fill="#99F6E4"/>
  <path d="M106 36H124.76C138.28 36 147.4 44.24 147.4 57.12C147.4 70 138.28 78 124.76 78H106V36ZM124.12 69.54C132 69.54 137.32 64.7 137.32 57.12C137.32 49.48 132 44.46 124.12 44.46H115.78V69.54H124.12Z" fill="white"/>
  <path d="M154.439 36H164.219V78H154.439V36Z" fill="white"/>
  <path d="M173.194 36H182.974V69.42H203.594V78H173.194V36Z" fill="white"/>
  <path d="M209.763 36H219.543V78H209.763V36Z" fill="white"/>
  <path d="M228.518 36H238.298V69.42H258.918V78H228.518V36Z" fill="white"/>
  <path d="M265.087 36H274.867V78H265.087V36Z" fill="white"/>
</svg>
